<mxfile host="65bd71144e" modified="2021-02-12T23:04:35.024Z" agent="5.0 (Windows NT 10.0; Win64; x64) AppleWebKit/537.36 (KHTML, like Gecko) Code/1.53.2 Chrome/87.0.4280.141 Electron/11.2.1 Safari/537.36" etag="aPvbe-ghaE9qJIXNAugW" version="14.2.4" type="embed">
    <diagram id="Z2ar4RyyXEILrqoorTKZ" name="Page-1">
        <mxGraphModel dx="1367" dy="797" grid="1" gridSize="10" guides="1" tooltips="1" connect="1" arrows="1" fold="1" page="1" pageScale="1" pageWidth="827" pageHeight="1169" math="0" shadow="0">
            <root>
                <mxCell id="0"/>
                <mxCell id="1" parent="0"/>
                <mxCell id="2" value="Inicio de Sesión" style="strokeWidth=1;shadow=0;dashed=0;align=center;html=1;shape=mxgraph.mockup.containers.window;align=left;verticalAlign=top;spacingLeft=8;strokeColor2=#008cff;strokeColor3=#c4c4c4;fontColor=#666666;mainText=;fontSize=17;labelBackgroundColor=none;" parent="1" vertex="1">
                    <mxGeometry x="160" y="100" width="550" height="380" as="geometry"/>
                </mxCell>
                <mxCell id="3" value="" style="shape=mxgraph.mockup.containers.marginRect;rectMarginTop=10;strokeColor=#666666;strokeWidth=1;dashed=0;rounded=1;arcSize=5;recursiveResize=0;" parent="1" vertex="1">
                    <mxGeometry x="341.25" y="165" width="187.5" height="250" as="geometry"/>
                </mxCell>
                <mxCell id="5" value="Matricula" style="strokeWidth=1;shadow=0;dashed=0;align=center;html=1;shape=mxgraph.mockup.forms.anchor;align=right;spacingRight=2;fontColor=#666666;" parent="1" vertex="1">
                    <mxGeometry x="350" y="260" width="50" height="18" as="geometry"/>
                </mxCell>
                <mxCell id="6" value="Matricula" style="strokeWidth=1;shadow=0;dashed=0;align=center;html=1;shape=mxgraph.mockup.forms.rrect;fillColor=#ffffff;rSize=0;fontColor=#666666;align=left;spacingLeft=3;strokeColor=#999999;" parent="1" vertex="1">
                    <mxGeometry x="410" y="260" width="100" height="18" as="geometry"/>
                </mxCell>
                <mxCell id="7" value="Contraseña" style="strokeWidth=1;shadow=0;dashed=0;align=center;html=1;shape=mxgraph.mockup.forms.anchor;align=right;spacingRight=2;fontColor=#666666;" parent="1" vertex="1">
                    <mxGeometry x="360" y="300" width="50" height="18" as="geometry"/>
                </mxCell>
                <mxCell id="8" value="Contraseña" style="strokeWidth=1;shadow=0;dashed=0;align=center;html=1;shape=mxgraph.mockup.forms.rrect;fillColor=#ffffff;rSize=0;fontColor=#666666;align=left;spacingLeft=3;strokeColor=#999999;" parent="1" vertex="1">
                    <mxGeometry x="410" y="300" width="100" height="18" as="geometry"/>
                </mxCell>
                <mxCell id="22" value="Ingresar" style="rounded=1;fillColor=#0057D8;align=center;strokeColor=none;html=1;fontColor=#ffffff;fontSize=12" parent="1" vertex="1">
                    <mxGeometry x="400" y="349" width="73.5" height="26.19" as="geometry"/>
                </mxCell>
                <mxCell id="24" value="Principal" style="strokeWidth=1;shadow=0;dashed=0;align=center;html=1;shape=mxgraph.mockup.containers.window;align=left;verticalAlign=top;spacingLeft=8;strokeColor2=#008cff;strokeColor3=#c4c4c4;fontColor=#666666;mainText=;fontSize=17;labelBackgroundColor=none;" parent="1" vertex="1">
                    <mxGeometry x="80" y="600" width="650" height="380" as="geometry"/>
                </mxCell>
                <mxCell id="31" value="" style="strokeWidth=1;shadow=0;dashed=0;align=center;html=1;shape=mxgraph.mockup.text.rrect;rSize=0;strokeColor=#666666;" parent="1" vertex="1">
                    <mxGeometry x="164" y="630" width="500" height="51" as="geometry"/>
                </mxCell>
                <mxCell id="32" value="&lt;font color=&quot;#000000&quot;&gt;Inscripciones&lt;/font&gt;" style="strokeColor=inherit;fillColor=inherit;gradientColor=inherit;strokeWidth=1;shadow=0;dashed=0;align=center;html=1;shape=mxgraph.mockup.text.rrect;rSize=0;fontSize=17;fontColor=#0000ff;" parent="31" vertex="1">
                    <mxGeometry x="125" width="125" height="40" as="geometry"/>
                </mxCell>
                <mxCell id="33" value="&lt;font color=&quot;#000000&quot;&gt;Editar&lt;/font&gt;" style="strokeColor=inherit;fillColor=inherit;gradientColor=inherit;strokeWidth=1;shadow=0;dashed=0;align=center;html=1;shape=mxgraph.mockup.text.rrect;rSize=0;fontSize=17;fontColor=#0000ff;" parent="31" vertex="1">
                    <mxGeometry x="250" width="125" height="40" as="geometry"/>
                </mxCell>
                <mxCell id="41" value="" style="shape=image;verticalLabelPosition=bottom;labelBackgroundColor=#ffffff;verticalAlign=top;aspect=fixed;imageAspect=0;image=data:image/png,iVBORw0KGgoAAAANSUhEUgAAAGAAAABgCAYAAADimHc4AAADcklEQVR4Ae1d7Y0UMQx1CZRACZRACVcKJdABJVACJVDClUAJlAB60lqK0MxsEr9bP/ZepFXmZm3nfXgye78S4WEFrIAVsAJWwApYAStgBayAFdBS4HNE/IyI14j4s/j5HRE/IgI1PDYU+BIREHFV+KN41PJYUABdC/HxgXifFnIz9MMtNw3xk5DKTMzYOiDc14nYeyEwELVQ02NSgV830T5Oxl+F4UmAAXiaPCYVyG3jLByifru9nGEWrq/GvXpXue/yu3uC4ZdRxuQMI85Gxpx9/zT30ZnfN382pkjjfCQMXqaIwZaClzP+zi3r5SjhwKxxjdlrrIf3CGNbPIFZuw1gADlLaCbuCFG+VGF0Dlyj3tlLe2at2RhwlDQhRcA/Tas/G5N8Cno1o8sRn0LMPAH/1ltZL3OxTm59o/n5ffuc2wCAro5VQY7+M8Y9bIEzY3W9rInOT/Pznsy8SwoEVnPzXYOnAB905sq2sLreKHIld6xDv64Aq+TuEKmsV8ndwTqdUwFWyZ0GOARW1qvkDhD4lxVgldwdJpX1Krk7WKdzKsAqudMAh8DKepXcAQL/sgKskrvDpLJeJXcH63ROBVjmPnqeJjcEJsbhlsZlBVjmPnreUS4x7uS+aY4sMDJrWZ6ywGwAWYHmcrKNJguMbJgsT1lgNoCsQHM52UaTBUY2TJanLDAbQFaguZxso8kCIxsmy1MWmA0gK9BcTrbRZIGRDZPlKQvMBpAVaC4n22iywMiGyfKUBWYDyAo0l5NtNFlgZMNkecoCswFkBZrLyTaaLDCyYbI8ZYHZALICzeVkG00WGNkwWZ6ywGwAWYHmcrKNJguMbJgsT1lgNoCsQHM52UaTBUY2TJanLDAbQFaguZxso8kCIxsmy1MWmA0gK9BcTrbRZIGRDZPlKQvMBpAVaC4n22iywMiGyfKUBWYDyAo0l5NtNFlgZMNkecoCswFkBZrLyTaaLDCyYbI8ZYHZALICzeVkG00WGNkwWZ6ywGwAWYHmcrKNJguMbJgsT1lgNoCsQHM52UaTBUY2TJanLDAbQFaguZxso+UJGisHKTRrubw8jmaBATg0Qm7kGTKrp1nIETkBhKNZkqPkqXw4ViQfz2ee0f2rhxSdeMq/PZ7t8mwm7JxVw1fYFa2AFbACVsAKWAErYAWsgBX47xX4CwaHhvXZWdu7AAAAAElFTkSuQmCC;" parent="31" vertex="1">
                    <mxGeometry x="386" width="41" height="41" as="geometry"/>
                </mxCell>
                <mxCell id="39" value="" style="shape=image;verticalLabelPosition=bottom;labelBackgroundColor=#ffffff;verticalAlign=top;aspect=fixed;imageAspect=0;image=data:image/png,iVBORw0KGgoAAAANSUhEUgAAAGAAAABgCAYAAADimHc4AAADsElEQVR4Ae2Z643UQBCEHQIhEMKFQAiEQAiEQAYXCiEQAiEQAiGA/KPlVcufd/pm3V22+iQ0O3U10/WwkBeWpX86gU6gE+gEOoFOoBPoBDqBTqAT+FgC/5ZlUfvz42NWrnlKLXzT8+uaccZVm2HF9XfczvVOKAb/qGkt4fP1Yh1X/GhW9fPfZVnexi1di6ka+p6uL9eKdkztntEVy/ih2Uf49wxhmTPIbIYGmv0Mv9VrKpmtLGD9O590Gf4zQ2DGDDPk18rZ61vPSAm3+K7gg7d9ZQHr7NES1tfUTxliz5phgfv1rHmP9/qZtjfOaAmXfk010361EM5c/UzbP86MlHDJ11Qz7dfHEM767Gfa3s8bLWE9/80fVt+bab9m6PYzbb83O1LCpb4rmGm/7oXwaszPtD3NiZTwTpeo4Wbarxk6/UzbH82OlHCJ11Qz7dejEF71Oz/T9s/uj5Qg/5pqpv36LIRX/N7PtP3I3ZES/ij/a6qZ9utICLMcP9P2o/dGSpD9rmCm/ToawgzPz7R95M5ICev9XyOXZ3DNtF8rZ3str95LvaaSuTsXsHqW+ekCiqvoArqAp//5Qg/JDF4c+zaeTGyM8z7R7Az8PFfBm8ls8BpZurw/eYGT1cr7iwok/hE+meHUcdI1dekrD0cFEv8If6Xe6F2kK3rPafyoQOIf4aeJH7iYdA0czaFEBRL/CM9xsj+FdO2zC1B5gZOZyPuTF9gFTCZQfFz+AZMXOFmgvL+oQOJX49QT6SJ+Oh4VSPxqnIIjXcRPx6MCiV+NU3Cki/jpeFQg8atxCo50ET8dlxc4mYi8P3mBXcBkAsXH5R8weYGTBcr7iwokfjVOPZEu4qfjUYHEr8YpONJF/HQ8KpD41TgFR7qIn45HBRK/GqfgSBfx03F5gZOJyPuTF9gFTCZQfFz+AZMXOFmgvL+oQOJX49QT6SJ+Oh4VSPxqnIIjXcRPx6MCiV+NU3Cki/jpeFQg8atxCo50ET8dlxc4mYi8P3mBXcBkAsXH5R8weYGTBcr7iwokfjVOPZEu4qfjUYHEr8YpONJF/HQ8KpD41TgFR7qIn45HBRK/GqfgSBfx03F5gZOJyPuTF9gFTCZQfFz+AZMXOFmgvD95gV3AZALFx+UfMHmBkwXK+5MX2AVMJlB8XP4BI4F3x4ufi2383YMmf1sCxZ9I4N3x4ti38XcPmvxtCRR/IoF3x4tj38bfPWjytyXQnzqBTqAT6AQ6gU6gE+gEOoFOoBMYTOA/NKVPwtPsnRYAAAAASUVORK5CYII=;" parent="31" vertex="1">
                    <mxGeometry x="79" width="46" height="46" as="geometry"/>
                </mxCell>
                <mxCell id="40" value="" style="shape=image;verticalLabelPosition=bottom;labelBackgroundColor=#ffffff;verticalAlign=top;aspect=fixed;imageAspect=0;image=data:image/png,iVBORw0KGgoAAAANSUhEUgAAAGAAAABgCAYAAADimHc4AAAFW0lEQVR4Ae2Zga3dNgxFPUJHyAgZoSNkhIzQEbJBRugIHSEjdISOkBEaXOATuBBIU9fPdJ5sCvgQnz9FXx7KsmVvW7cm0ASaQBNoAk2gCTSBJtAEmkATaAJNoAk0gSawBoG/tm37tobU+6kE+P8//roIF9f3O8G3Ivx9sYZHnu6PbdsA2qCP/Y9HUrko6Qy+FaOLUFAQwP9nZ+YbfOu7CCcWQYVvRfh3UoP5R/1kmHu6HYVvMFEExNhr5hv1e2Nv/b8Z+FhqsqUpK0IE3o7fGnKUHOADnEHwejwN2ezeezLC2P+2bfsUnMyLzceCYfc9DFAAxhBGG/sAg28kvL0Bj/u5bdtnc6aefTybXO9vAtAM/IjEkSJ40PlYdK7bHX8VvgHhVxQM0uzxSrDjUW9xb90DPsBEEHDce98zLkMGKSsC4v354bx3Tvzv9m0GPt56jg3wcfONNl1fk4JaER5dAMzCvZmP/wHk2ACfHz+jIiB+Bjj7/3ju2/wG2DPgG8Bo5/tqEW4DnBPBkpLB/8IDPuxx5ht866NN1ytFcGSsfegV+FhqDHbUR0XAvSYas3d8bdqDesDfSxZXhTfzZzZnHBd7CQAf28wNn+PAvk2bgY+lYmyAlm3ORmj4jWKeUYRRz5K/s+dyAPbe1RyFbwWJioBzZe+aLMaSwFl09noAICL4ezdqA5T1URFwQ58pAueylG0bpT1A1fD53N7yNlOEaI/x1sWYhQ+/sQHUGTOf4Zv9iCIAKu9SLXnuMfM9+HgCqoJv5/eesjAJskdcaH77NgMfiXrws/2BATyj915vAO5METztb1GYGfj8FYtFXwnfCohzei37uhZdvV6sy47NwPe+YkFgtj8wYBX90SLgsfltrgQIwazYA/SO8E2v950BEyN7fI5225fNepxo5hUBEvFatjkzQFf0R4sQ7TG8fE8/NrNLjeBns+sK6OM5sPZ7LZsov6UIM/C9WYXlKrvJjWCu/B1turL71KVFAPzsWd17zHt3+FboqAjYxJmP14OJt9HzrqrDxzL4EBHBzzZnXlK/69jRIkBvWREQeG/m3wW+FT3a+WZXQkkRZr7felt8LDsrzXyDb3206ZopgrcSHFp6cAPKZn4EP9vaW6Lv3EdFyJZj5PRyEY7Cn9kfvDP0UVu06ZopQrTbTq+Go49eEAXBYxKr/8YqgNzGhsm2t0Ig70NF2CsAAEdfse4I3yZPVITsdcyhAqDS3s0Ga2IEP5sJlsjKvVIE+L58H+AlJYKPYj0BPk+ccSnCb74SwAMT+JRmu1j0UWNxT7AjDmCEd13eKhGNOeX4E6BzjqdAOzMIi3uCfSa7U2I9ATrneAq0M4OwOLbVc/BYtlePo+qX/RkW22ogHsv26nFU/bI/w2JbDcRj2V49jqpf9mdYbKuBeCzbq8dR9cv+DIttNRCPZXv1OKp+2Z9hsa0G4rFsrx5H1S/7Myy21UA8lu3V46j6ZX+GxbYaiMeyvXocVb/sz7DYVgPxWLZXj6Pql/0ZFttqIB7L9upxVP2yP8NiWw3EY9lePY6qX/ZnWGyrgXgs26vHUfXL/gyrwlYFVWjgmKqecn8WV2GrCVRo4JiqnnJ/FldhqwlUaOCYqp5yfxZXYasJVGjgmKqecn8WV2GrCVRo4JiqnnJ/FldhqwlUaOCYqp5yfxZXYasJVGjgmKqecn8WV2GrCVRo4JiqnnJ/FldhqwlUaOCYqp5yfxZXYasJVGjgmKqecn8WV2GrCVRo4JiqnnJ/FldhqwlUaOCYqp5yfxZXYasJVGjgmKqe9m8CTaAJNIEm0ASaQBNoAk2gCTSBJtAEmkATeDiBXwRr5a5d4UOgAAAAAElFTkSuQmCC;" parent="1" vertex="1">
                    <mxGeometry x="80" y="630" width="40" height="40" as="geometry"/>
                </mxCell>
                <mxCell id="42" value="" style="aspect=fixed;pointerEvents=1;shadow=0;dashed=0;html=1;strokeColor=none;labelPosition=center;verticalLabelPosition=bottom;verticalAlign=top;align=center;shape=mxgraph.mscae.enterprise.user_permissions;fillColor=#0078D7;" parent="1" vertex="1">
                    <mxGeometry x="414" y="190" width="47" height="50" as="geometry"/>
                </mxCell>
                <mxCell id="44" value="&lt;p style=&quot;line-height: 100% ; font-size: 11px&quot;&gt;&lt;font color=&quot;#000000&quot;&gt;Usuario&lt;/font&gt;&lt;/p&gt;&lt;p style=&quot;line-height: 100% ; font-size: 11px&quot;&gt;&lt;font color=&quot;#000000&quot;&gt;Matricula&lt;/font&gt;&lt;/p&gt;" style="strokeColor=inherit;fillColor=inherit;gradientColor=inherit;strokeWidth=1;shadow=0;dashed=0;align=left;html=1;shape=mxgraph.mockup.text.rrect;rSize=0;fontSize=17;fontColor=#0000ff;" parent="1" vertex="1">
                    <mxGeometry x="600" y="630" width="130" height="50" as="geometry"/>
                </mxCell>
                <mxCell id="43" value="" style="aspect=fixed;pointerEvents=1;shadow=0;dashed=0;html=1;strokeColor=none;labelPosition=center;verticalLabelPosition=bottom;verticalAlign=top;align=center;shape=mxgraph.mscae.enterprise.user_permissions;fillColor=#0078D7;" parent="1" vertex="1">
                    <mxGeometry x="700" y="630" width="24.44" height="26" as="geometry"/>
                </mxCell>
                <mxCell id="51" value="" style="group" parent="1" vertex="1" connectable="0">
                    <mxGeometry x="140" y="720" width="75" height="100" as="geometry"/>
                </mxCell>
                <mxCell id="25" value="" style="shape=mxgraph.mockup.containers.marginRect;rectMarginTop=10;strokeColor=#666666;strokeWidth=1;dashed=0;rounded=1;arcSize=5;recursiveResize=0;shadow=0;" parent="51" vertex="1">
                    <mxGeometry width="75" height="100" as="geometry"/>
                </mxCell>
                <mxCell id="47" value="Deporte" style="text;html=1;strokeColor=none;fillColor=none;align=center;verticalAlign=middle;whiteSpace=wrap;rounded=0;shadow=0;" parent="51" vertex="1">
                    <mxGeometry x="17.5" y="20" width="40" height="20" as="geometry"/>
                </mxCell>
                <mxCell id="49" value="" style="shape=mxgraph.signs.sports.cross_country_skiing_2;html=1;pointerEvents=1;fillColor=#000000;strokeColor=none;verticalLabelPosition=bottom;verticalAlign=top;align=center;shadow=0;" parent="51" vertex="1">
                    <mxGeometry x="17.5" y="54" width="34.44" height="32" as="geometry"/>
                </mxCell>
                <mxCell id="54" value="" style="group" parent="1" vertex="1" connectable="0">
                    <mxGeometry x="280" y="720" width="75" height="100" as="geometry"/>
                </mxCell>
                <mxCell id="55" value="" style="shape=mxgraph.mockup.containers.marginRect;rectMarginTop=10;strokeColor=#666666;strokeWidth=1;dashed=0;rounded=1;arcSize=5;recursiveResize=0;shadow=0;" parent="54" vertex="1">
                    <mxGeometry width="75" height="100" as="geometry"/>
                </mxCell>
                <mxCell id="56" value="Deporte" style="text;html=1;strokeColor=none;fillColor=none;align=center;verticalAlign=middle;whiteSpace=wrap;rounded=0;shadow=0;" parent="54" vertex="1">
                    <mxGeometry x="17.5" y="20" width="40" height="20" as="geometry"/>
                </mxCell>
                <mxCell id="57" value="" style="shape=mxgraph.signs.sports.cross_country_skiing_2;html=1;pointerEvents=1;fillColor=#000000;strokeColor=none;verticalLabelPosition=bottom;verticalAlign=top;align=center;shadow=0;" parent="54" vertex="1">
                    <mxGeometry x="17.5" y="54" width="34.44" height="32" as="geometry"/>
                </mxCell>
                <mxCell id="59" value="" style="group" parent="1" vertex="1" connectable="0">
                    <mxGeometry x="420" y="720" width="75" height="100" as="geometry"/>
                </mxCell>
                <mxCell id="60" value="" style="shape=mxgraph.mockup.containers.marginRect;rectMarginTop=10;strokeColor=#666666;strokeWidth=1;dashed=0;rounded=1;arcSize=5;recursiveResize=0;shadow=0;" parent="59" vertex="1">
                    <mxGeometry width="75" height="100" as="geometry"/>
                </mxCell>
                <mxCell id="61" value="Deporte" style="text;html=1;strokeColor=none;fillColor=none;align=center;verticalAlign=middle;whiteSpace=wrap;rounded=0;shadow=0;" parent="59" vertex="1">
                    <mxGeometry x="17.5" y="20" width="40" height="20" as="geometry"/>
                </mxCell>
                <mxCell id="62" value="" style="shape=mxgraph.signs.sports.cross_country_skiing_2;html=1;pointerEvents=1;fillColor=#000000;strokeColor=none;verticalLabelPosition=bottom;verticalAlign=top;align=center;shadow=0;" parent="59" vertex="1">
                    <mxGeometry x="17.5" y="54" width="34.44" height="32" as="geometry"/>
                </mxCell>
                <mxCell id="64" value="" style="group" parent="1" vertex="1" connectable="0">
                    <mxGeometry x="570" y="720" width="75" height="100" as="geometry"/>
                </mxCell>
                <mxCell id="65" value="" style="shape=mxgraph.mockup.containers.marginRect;rectMarginTop=10;strokeColor=#666666;strokeWidth=1;dashed=0;rounded=1;arcSize=5;recursiveResize=0;shadow=0;" parent="64" vertex="1">
                    <mxGeometry width="75" height="100" as="geometry"/>
                </mxCell>
                <mxCell id="66" value="Deporte" style="text;html=1;strokeColor=none;fillColor=none;align=center;verticalAlign=middle;whiteSpace=wrap;rounded=0;shadow=0;" parent="64" vertex="1">
                    <mxGeometry x="17.5" y="20" width="40" height="20" as="geometry"/>
                </mxCell>
                <mxCell id="67" value="" style="shape=mxgraph.signs.sports.cross_country_skiing_2;html=1;pointerEvents=1;fillColor=#000000;strokeColor=none;verticalLabelPosition=bottom;verticalAlign=top;align=center;shadow=0;" parent="64" vertex="1">
                    <mxGeometry x="17.5" y="54" width="34.44" height="32" as="geometry"/>
                </mxCell>
                <mxCell id="84" value="" style="group" parent="1" vertex="1" connectable="0">
                    <mxGeometry x="140" y="840" width="75" height="100" as="geometry"/>
                </mxCell>
                <mxCell id="85" value="" style="shape=mxgraph.mockup.containers.marginRect;rectMarginTop=10;strokeColor=#666666;strokeWidth=1;dashed=0;rounded=1;arcSize=5;recursiveResize=0;shadow=0;" parent="84" vertex="1">
                    <mxGeometry width="75" height="100" as="geometry"/>
                </mxCell>
                <mxCell id="86" value="Deporte" style="text;html=1;strokeColor=none;fillColor=none;align=center;verticalAlign=middle;whiteSpace=wrap;rounded=0;shadow=0;" parent="84" vertex="1">
                    <mxGeometry x="17.5" y="20" width="40" height="20" as="geometry"/>
                </mxCell>
                <mxCell id="87" value="" style="shape=mxgraph.signs.sports.cross_country_skiing_2;html=1;pointerEvents=1;fillColor=#000000;strokeColor=none;verticalLabelPosition=bottom;verticalAlign=top;align=center;shadow=0;" parent="84" vertex="1">
                    <mxGeometry x="17.5" y="54" width="34.44" height="32" as="geometry"/>
                </mxCell>
                <mxCell id="88" value="" style="group" parent="1" vertex="1" connectable="0">
                    <mxGeometry x="280" y="840" width="75" height="100" as="geometry"/>
                </mxCell>
                <mxCell id="89" value="" style="shape=mxgraph.mockup.containers.marginRect;rectMarginTop=10;strokeColor=#666666;strokeWidth=1;dashed=0;rounded=1;arcSize=5;recursiveResize=0;shadow=0;" parent="88" vertex="1">
                    <mxGeometry width="75" height="100" as="geometry"/>
                </mxCell>
                <mxCell id="90" value="Deporte" style="text;html=1;strokeColor=none;fillColor=none;align=center;verticalAlign=middle;whiteSpace=wrap;rounded=0;shadow=0;" parent="88" vertex="1">
                    <mxGeometry x="17.5" y="20" width="40" height="20" as="geometry"/>
                </mxCell>
                <mxCell id="91" value="" style="shape=mxgraph.signs.sports.cross_country_skiing_2;html=1;pointerEvents=1;fillColor=#000000;strokeColor=none;verticalLabelPosition=bottom;verticalAlign=top;align=center;shadow=0;" parent="88" vertex="1">
                    <mxGeometry x="17.5" y="54" width="34.44" height="32" as="geometry"/>
                </mxCell>
                <mxCell id="92" value="" style="group" parent="1" vertex="1" connectable="0">
                    <mxGeometry x="420" y="840" width="75" height="100" as="geometry"/>
                </mxCell>
                <mxCell id="93" value="" style="shape=mxgraph.mockup.containers.marginRect;rectMarginTop=10;strokeColor=#666666;strokeWidth=1;dashed=0;rounded=1;arcSize=5;recursiveResize=0;shadow=0;" parent="92" vertex="1">
                    <mxGeometry width="75" height="100" as="geometry"/>
                </mxCell>
                <mxCell id="94" value="Deporte" style="text;html=1;strokeColor=none;fillColor=none;align=center;verticalAlign=middle;whiteSpace=wrap;rounded=0;shadow=0;" parent="92" vertex="1">
                    <mxGeometry x="17.5" y="20" width="40" height="20" as="geometry"/>
                </mxCell>
                <mxCell id="95" value="" style="shape=mxgraph.signs.sports.cross_country_skiing_2;html=1;pointerEvents=1;fillColor=#000000;strokeColor=none;verticalLabelPosition=bottom;verticalAlign=top;align=center;shadow=0;" parent="92" vertex="1">
                    <mxGeometry x="17.5" y="54" width="34.44" height="32" as="geometry"/>
                </mxCell>
                <mxCell id="96" value="" style="group" parent="1" vertex="1" connectable="0">
                    <mxGeometry x="570" y="840" width="75" height="100" as="geometry"/>
                </mxCell>
                <mxCell id="97" value="" style="shape=mxgraph.mockup.containers.marginRect;rectMarginTop=10;strokeColor=#666666;strokeWidth=1;dashed=0;rounded=1;arcSize=5;recursiveResize=0;shadow=0;" parent="96" vertex="1">
                    <mxGeometry width="75" height="100" as="geometry"/>
                </mxCell>
                <mxCell id="98" value="Deporte" style="text;html=1;strokeColor=none;fillColor=none;align=center;verticalAlign=middle;whiteSpace=wrap;rounded=0;shadow=0;" parent="96" vertex="1">
                    <mxGeometry x="17.5" y="20" width="40" height="20" as="geometry"/>
                </mxCell>
                <mxCell id="99" value="" style="shape=mxgraph.signs.sports.cross_country_skiing_2;html=1;pointerEvents=1;fillColor=#000000;strokeColor=none;verticalLabelPosition=bottom;verticalAlign=top;align=center;shadow=0;" parent="96" vertex="1">
                    <mxGeometry x="17.5" y="54" width="34.44" height="32" as="geometry"/>
                </mxCell>
            </root>
        </mxGraphModel>
    </diagram>
</mxfile>